<svg xmlns="http://www.w3.org/2000/svg" xmlns:xlink="http://www.w3.org/1999/xlink" id="Layer_1" data-name="Layer 1" viewBox="10.86 100.47 235.64 52.61"><defs><style>.cls-1{fill:none;}.cls-2{fill:#d9261c;}.cls-2,.cls-3,.cls-6{fill-rule:evenodd;}.cls-3{fill:#0a1fb3;}.cls-4{clip-path:url(#clip-path);}.cls-5{clip-path:url(#clip-path-2);}.cls-6{fill:#fff;}</style><clipPath id="clip-path"><polygon class="cls-1" points="16.77 156.25 66.28 143.04 53.02 93.75 3.5 106.96 16.77 156.25"/></clipPath><clipPath id="clip-path-2"><path class="cls-1" d="M28.24,100.91a25.18,25.18,0,1,1-17.88,30.83,25.36,25.36,0,0,1,17.88-30.83"/></clipPath></defs><title>exide-logo</title><polyline class="cls-2" points="71.44 115.63 67.79 115.52 72.1 101.86 89.36 101.86 89.72 100.51 102.48 100.47 98.05 115.53 85.39 115.53 85.39 119.58 101.59 119.63 98.26 130.16 85.28 130.16 85.28 134.77 101.78 134.69 97.85 148.76 71.44 148.74"/><polyline class="cls-2" points="106.01 101.86 121.03 101.86 126.48 112.15 132.71 101.86 147.38 101.87 135.24 124.64 148.71 148.71 134.84 148.76 126.94 134.75 119.58 148.6 104.96 148.6 118.91 124.66"/><polyline class="cls-2" points="149.39 114.91 153.48 102.1 166.24 102.1 165.7 148.76 152.65 148.76 153 114.91"/><polyline class="cls-2" points="216.37 102.36 232.79 102.35 234.05 101.13 246.5 101.1 242.38 115.86 230.01 115.81 229.96 120.2 245.38 120.17 242.48 130.26 229.28 130.38 229.25 135.41 245.29 135.46 241.88 148.63 215.87 148.76 216.12 115.29 212.85 115.29"/><path class="cls-3" d="M36.15,102.74a25.17,25.17,0,1,1-25.29,25.17,25.28,25.28,0,0,1,25.29-25.17"/><g class="cls-4"><g class="cls-5"><polyline class="cls-6" points="16.49 144.09 23.68 119.2 33.22 130.16 38.89 110.45 48.2 120.59 52.86 105.27 56.81 109.07 49.34 133.88 40.13 123.22 34.24 143 24.8 132.41 20.25 147.22"/></g></g><path class="cls-2" d="M186.61,116c12.78,0,12.59,18.77,0,18.77M169.49,115l4-12.84h17.87c25.78,5.06,23.1,40.21,1.22,46.58l-19.63,0L172.82,115Z"/></svg>